<svg version="1.1" viewBox="0.0 0.0 1439.7716535433071 262.3044619422572" fill="none" stroke="none" stroke-linecap="square" stroke-miterlimit="10" xmlns:xlink="http://www.w3.org/1999/xlink" xmlns="http://www.w3.org/2000/svg"><clipPath id="p.0"><path d="m0 0l1439.7716 0l0 262.30447l-1439.7716 0l0 -262.30447z" clip-rule="nonzero"/></clipPath><g clip-path="url(#p.0)"><path fill="#000000" fill-opacity="0.0" d="m0 0l1439.7716 0l0 262.30447l-1439.7716 0z" fill-rule="evenodd"/><path fill="#22c55e" d="m144.65475 27.624565c-15.808319 0 -29.06108 4.5278244 -39.758286 13.583477c-10.674591 9.031044 -16.011871 20.818161 -16.011871 35.36134c0 10.999664 3.0304794 20.030716 9.091484 27.09314c6.0835953 7.037819 13.772911 12.131622 23.067955 15.28141c9.295029 3.1251907 19.641678 6.0904236 31.039963 8.895706c8.887939 2.4361649 15.344711 5.339882 19.3703 8.7111435c4.0482025 3.3466492 6.072296 7.6407013 6.072296 12.882156c0 6.4226227 -2.6347198 11.393387 -7.904175 14.9122925c-5.246811 3.4943085 -12.280289 5.241455 -21.100388 5.241455c-9.7699585 0 -17.674118 -2.4730835 -23.712494 -7.419235c-6.038376 -4.9461517 -9.125412 -12.439224 -9.261108 -22.479187l-31.650581 0l0 0.8858795c0 17.71759 5.9026794 31.59636 17.708046 41.636322c11.805359 10.039963 27.070923 15.059952 45.79666 15.059952c19.607758 0 34.805466 -4.7369995 45.59314 -14.210983c10.787659 -9.498596 16.181488 -22.07315 16.181488 -37.72368c0 -11.885544 -3.460205 -21.70404 -10.380585 -29.455482c-6.9203796 -7.751442 -16.554642 -13.251282 -28.902786 -16.499504c-18.38652 -4.7246857 -30.316254 -8.169769 -35.789246 -10.335251c-5.450363 -2.1900864 -9.057564 -4.2817535 -10.821587 -6.2749786c-1.7640152 -1.9932251 -2.6460266 -5.0199814 -2.6460266 -9.080261c0 -5.905861 2.114563 -10.4459915 6.3436813 -13.620392c4.2517548 -3.1744003 9.702118 -4.7616005 16.351105 -4.7616005c9.7699585 0 16.961731 2.0547523 21.575317 6.164242c4.6136017 4.0848923 7.157852 10.187614 7.632782 18.308167l31.650589 0c0 -16.61023 -5.4277496 -29.455479 -16.283264 -38.535736c-10.855499 -9.080261 -25.272964 -13.620392 -43.25241 -13.620392z" fill-rule="evenodd"/><path fill="#22c55e" d="m292.62888 136.03401l0 12.513046c0 8.637329 -2.0240784 15.207596 -6.072296 19.710815c-4.0255737 4.5032196 -9.97348 6.754822 -17.84372 6.754822c-6.309784 0 -10.92337 -1.3288116 -13.84079 -3.9864502c-2.9174042 -2.6576385 -4.376114 -6.3118896 -4.376114 -10.962753c0 -5.093811 1.5717773 -9.055664 4.7153625 -11.885544c3.1661835 -2.8545074 8.107712 -4.761612 14.824539 -5.7213135c7.531006 -1.1811676 12.732605 -2.153183 15.604797 -2.9160156c2.894806 -0.78744507 5.2242126 -1.9563141 6.98822 -3.506607zm-17.606262 -63.00814c-15.197723 0 -27.263153 3.3220444 -36.196335 9.966133c-8.910553 6.6440964 -13.772919 16.388763 -14.587082 29.234016l29.615173 0c0.54278564 -6.1273346 2.442505 -10.605942 5.6991577 -13.435837c3.2566528 -2.8544922 7.93808 -4.281746 14.044312 -4.281746c7.056061 0 11.986267 1.3165131 14.790619 3.9495392c2.8269348 2.608429 4.2404175 6.5333633 4.2404175 11.774811c0 4.6508636 -1.8318481 7.9236984 -5.495575 9.818497c-3.6637573 1.8701935 -11.228668 3.3958664 -22.694794 4.5770416c-16.486816 1.9932251 -27.851166 5.8935547 -34.093094 11.700989c-6.241913 5.7828064 -9.362869 14.137146 -9.362869 25.062988c0 11.294968 3.3244934 19.99379 9.9734955 26.096527c6.649002 6.0781097 15.536942 9.117172 26.663834 9.117172c7.734558 0 14.666229 -1.2303925 20.795074 -3.691162c6.1514587 -2.4853973 11.296509 -6.0535126 15.435181 -10.704376c0.13571167 1.9194031 0.38446045 3.8265076 0.7463074 5.721298c0.38446045 1.8701935 0.8480835 3.691162 1.3908691 5.462921l30.022278 0c-1.3569641 -2.4361572 -2.3294067 -6.0165863 -2.9174194 -10.741272c-0.56539917 -4.724701 -0.8480835 -9.449387 -0.8480835 -14.174072l0 -62.897415c0 -10.3352585 -3.8898926 -18.345078 -11.669678 -24.029472c-7.7571716 -5.684387 -19.607758 -8.526581 -35.55179 -8.526581z" fill-rule="evenodd"/><path fill="#22c55e" d="m332.62463 76.12644l37.960358 109.95974c0.6106262 1.624115 0.98379517 2.977539 1.1194763 4.0602875c0.13568115 1.0581207 0.20355225 2.1408691 0.20355225 3.2482147c0 4.2079315 -1.1534119 7.7145386 -3.460205 10.519821c-2.3067932 2.8052826 -5.563446 4.2079163 -9.7699585 4.2079163c-2.103241 0 -4.3082886 -0.07382202 -6.615082 -0.22146606c-2.3067932 -0.14764404 -5.2581177 -0.44293213 -8.854004 -0.8858795l0 26.465637c3.1209412 0.36912537 6.1514587 0.66441345 9.091492 0.8858795c2.9626465 0.22148132 6.5811462 0.33221436 10.855499 0.33221436c8.95578 0 16.249329 -2.1039734 21.880615 -6.3118896c5.631317 -4.2079315 9.803894 -10.224533 12.517761 -18.04979l45.79666 -134.2107l-30.632874 0l-23.508942 80.2828l-0.4071045 0l-24.424866 -80.2828z" fill-rule="evenodd"/><path fill="#22c55e" d="m507.36438 97.27681c8.548706 0 15.028076 3.5065994 19.43811 10.519814c4.410095 7.0132065 6.6151123 16.130379 6.6151123 27.35151c0 11.811722 -2.2276611 20.965805 -6.6829224 27.462265c-4.432678 6.4964447 -10.753723 9.744659 -18.963226 9.744659c-8.413025 0 -14.824554 -3.3958588 -19.234589 -10.187607c-4.4100647 -6.791733 -6.615082 -15.798172 -6.615082 -27.019318c0 -11.959358 2.205017 -21.261093 6.615082 -27.905182c4.410034 -6.6440964 10.685883 -9.966141 18.827515 -9.966141zm6.716858 -24.250938c-6.9882507 0 -13.218872 1.4764633 -18.691833 4.42939c-5.4503784 2.9529343 -9.939575 7.493065 -13.467621 13.620392l-0.40707397 0l0 -14.949211l-28.088623 0l0 158.57236l29.513397 0l0 -55.810394l0.5088501 0c3.5280457 5.6844025 8.141632 10.064575 13.84079 13.140549c5.699127 3.0513458 11.839264 4.5770416 18.42041 4.5770416c14.451416 0 25.951477 -5.758209 34.500183 -17.274643c8.548706 -11.516434 12.823059 -25.948883 12.823059 -43.297348c0 -18.751099 -4.342224 -33.934082 -13.026611 -45.548943c-8.684387 -11.639465 -20.659363 -17.459198 -35.924927 -17.459198z" fill-rule="evenodd"/><path fill="#22c55e" d="m580.74084 31.500286l0 161.8944l29.513367 0l0 -62.5652c0 -10.999672 1.7753296 -19.157143 5.325989 -24.472412c3.5733032 -5.315277 9.464661 -7.9729156 17.674133 -7.9729156c6.852539 0 11.714905 2.3500443 14.587097 7.050125c2.8947754 4.675476 4.342163 11.590248 4.342163 20.744331l0 67.21607l29.615234 0l0 -73.30649c0 -16.167297 -3.1096802 -28.052841 -9.3289795 -35.65663c-6.1967163 -7.603798 -16.147583 -11.405693 -29.852661 -11.405693c-6.5133057 0 -12.64209 1.7963638 -18.386475 5.3890915c-5.7218018 3.5681305 -10.143127 8.268211 -13.264099 14.100243l-0.71240234 0l0 -61.01492z" fill-rule="evenodd"/><path stroke="#ffffff" stroke-width="4.0" stroke-linejoin="round" stroke-linecap="butt" d="m144.65475 27.624565c-15.808319 0 -29.06108 4.5278244 -39.758286 13.583477c-10.674591 9.031044 -16.011871 20.818161 -16.011871 35.36134c0 10.999664 3.0304794 20.030716 9.091484 27.09314c6.0835953 7.037819 13.772911 12.131622 23.067955 15.28141c9.295029 3.1251907 19.641678 6.0904236 31.039963 8.895706c8.887939 2.4361649 15.344711 5.339882 19.3703 8.7111435c4.0482025 3.3466492 6.072296 7.6407013 6.072296 12.882156c0 6.4226227 -2.6347198 11.393387 -7.904175 14.9122925c-5.246811 3.4943085 -12.280289 5.241455 -21.100388 5.241455c-9.7699585 0 -17.674118 -2.4730835 -23.712494 -7.419235c-6.038376 -4.9461517 -9.125412 -12.439224 -9.261108 -22.479187l-31.650581 0l0 0.8858795c0 17.71759 5.9026794 31.59636 17.708046 41.636322c11.805359 10.039963 27.070923 15.059952 45.79666 15.059952c19.607758 0 34.805466 -4.7369995 45.59314 -14.210983c10.787659 -9.498596 16.181488 -22.07315 16.181488 -37.72368c0 -11.885544 -3.460205 -21.70404 -10.380585 -29.455482c-6.9203796 -7.751442 -16.554642 -13.251282 -28.902786 -16.499504c-18.38652 -4.7246857 -30.316254 -8.169769 -35.789246 -10.335251c-5.450363 -2.1900864 -9.057564 -4.2817535 -10.821587 -6.2749786c-1.7640152 -1.9932251 -2.6460266 -5.0199814 -2.6460266 -9.080261c0 -5.905861 2.114563 -10.4459915 6.3436813 -13.620392c4.2517548 -3.1744003 9.702118 -4.7616005 16.351105 -4.7616005c9.7699585 0 16.961731 2.0547523 21.575317 6.164242c4.6136017 4.0848923 7.157852 10.187614 7.632782 18.308167l31.650589 0c0 -16.61023 -5.4277496 -29.455479 -16.283264 -38.535736c-10.855499 -9.080261 -25.272964 -13.620392 -43.25241 -13.620392z" fill-rule="evenodd"/><path stroke="#ffffff" stroke-width="4.0" stroke-linejoin="round" stroke-linecap="butt" d="m292.62888 136.03401l0 12.513046c0 8.637329 -2.0240784 15.207596 -6.072296 19.710815c-4.0255737 4.5032196 -9.97348 6.754822 -17.84372 6.754822c-6.309784 0 -10.92337 -1.3288116 -13.84079 -3.9864502c-2.9174042 -2.6576385 -4.376114 -6.3118896 -4.376114 -10.962753c0 -5.093811 1.5717773 -9.055664 4.7153625 -11.885544c3.1661835 -2.8545074 8.107712 -4.761612 14.824539 -5.7213135c7.531006 -1.1811676 12.732605 -2.153183 15.604797 -2.9160156c2.894806 -0.78744507 5.2242126 -1.9563141 6.98822 -3.506607zm-17.606262 -63.00814c-15.197723 0 -27.263153 3.3220444 -36.196335 9.966133c-8.910553 6.6440964 -13.772919 16.388763 -14.587082 29.234016l29.615173 0c0.54278564 -6.1273346 2.442505 -10.605942 5.6991577 -13.435837c3.2566528 -2.8544922 7.93808 -4.281746 14.044312 -4.281746c7.056061 0 11.986267 1.3165131 14.790619 3.9495392c2.8269348 2.608429 4.2404175 6.5333633 4.2404175 11.774811c0 4.6508636 -1.8318481 7.9236984 -5.495575 9.818497c-3.6637573 1.8701935 -11.228668 3.3958664 -22.694794 4.5770416c-16.486816 1.9932251 -27.851166 5.8935547 -34.093094 11.700989c-6.241913 5.7828064 -9.362869 14.137146 -9.362869 25.062988c0 11.294968 3.3244934 19.99379 9.9734955 26.096527c6.649002 6.0781097 15.536942 9.117172 26.663834 9.117172c7.734558 0 14.666229 -1.2303925 20.795074 -3.691162c6.1514587 -2.4853973 11.296509 -6.0535126 15.435181 -10.704376c0.13571167 1.9194031 0.38446045 3.8265076 0.7463074 5.721298c0.38446045 1.8701935 0.8480835 3.691162 1.3908691 5.462921l30.022278 0c-1.3569641 -2.4361572 -2.3294067 -6.0165863 -2.9174194 -10.741272c-0.56539917 -4.724701 -0.8480835 -9.449387 -0.8480835 -14.174072l0 -62.897415c0 -10.3352585 -3.8898926 -18.345078 -11.669678 -24.029472c-7.7571716 -5.684387 -19.607758 -8.526581 -35.55179 -8.526581z" fill-rule="evenodd"/><path stroke="#ffffff" stroke-width="4.0" stroke-linejoin="round" stroke-linecap="butt" d="m332.62463 76.12644l37.960358 109.95974c0.6106262 1.624115 0.98379517 2.977539 1.1194763 4.0602875c0.13568115 1.0581207 0.20355225 2.1408691 0.20355225 3.2482147c0 4.2079315 -1.1534119 7.7145386 -3.460205 10.519821c-2.3067932 2.8052826 -5.563446 4.2079163 -9.7699585 4.2079163c-2.103241 0 -4.3082886 -0.07382202 -6.615082 -0.22146606c-2.3067932 -0.14764404 -5.2581177 -0.44293213 -8.854004 -0.8858795l0 26.465637c3.1209412 0.36912537 6.1514587 0.66441345 9.091492 0.8858795c2.9626465 0.22148132 6.5811462 0.33221436 10.855499 0.33221436c8.95578 0 16.249329 -2.1039734 21.880615 -6.3118896c5.631317 -4.2079315 9.803894 -10.224533 12.517761 -18.04979l45.79666 -134.2107l-30.632874 0l-23.508942 80.2828l-0.4071045 0l-24.424866 -80.2828z" fill-rule="evenodd"/><path stroke="#ffffff" stroke-width="4.0" stroke-linejoin="round" stroke-linecap="butt" d="m507.36438 97.27681c8.548706 0 15.028076 3.5065994 19.43811 10.519814c4.410095 7.0132065 6.6151123 16.130379 6.6151123 27.35151c0 11.811722 -2.2276611 20.965805 -6.6829224 27.462265c-4.432678 6.4964447 -10.753723 9.744659 -18.963226 9.744659c-8.413025 0 -14.824554 -3.3958588 -19.234589 -10.187607c-4.4100647 -6.791733 -6.615082 -15.798172 -6.615082 -27.019318c0 -11.959358 2.205017 -21.261093 6.615082 -27.905182c4.410034 -6.6440964 10.685883 -9.966141 18.827515 -9.966141zm6.716858 -24.250938c-6.9882507 0 -13.218872 1.4764633 -18.691833 4.42939c-5.4503784 2.9529343 -9.939575 7.493065 -13.467621 13.620392l-0.40707397 0l0 -14.949211l-28.088623 0l0 158.57236l29.513397 0l0 -55.810394l0.5088501 0c3.5280457 5.6844025 8.141632 10.064575 13.84079 13.140549c5.699127 3.0513458 11.839264 4.5770416 18.42041 4.5770416c14.451416 0 25.951477 -5.758209 34.500183 -17.274643c8.548706 -11.516434 12.823059 -25.948883 12.823059 -43.297348c0 -18.751099 -4.342224 -33.934082 -13.026611 -45.548943c-8.684387 -11.639465 -20.659363 -17.459198 -35.924927 -17.459198z" fill-rule="evenodd"/><path stroke="#ffffff" stroke-width="4.0" stroke-linejoin="round" stroke-linecap="butt" d="m580.74084 31.500286l0 161.8944l29.513367 0l0 -62.5652c0 -10.999672 1.7753296 -19.157143 5.325989 -24.472412c3.5733032 -5.315277 9.464661 -7.9729156 17.674133 -7.9729156c6.852539 0 11.714905 2.3500443 14.587097 7.050125c2.8947754 4.675476 4.342163 11.590248 4.342163 20.744331l0 67.21607l29.615234 0l0 -73.30649c0 -16.167297 -3.1096802 -28.052841 -9.3289795 -35.65663c-6.1967163 -7.603798 -16.147583 -11.405693 -29.852661 -11.405693c-6.5133057 0 -12.64209 1.7963638 -18.386475 5.3890915c-5.7218018 3.5681305 -10.143127 8.268211 -13.264099 14.100243l-0.71240234 0l0 -61.01492z" fill-rule="evenodd"/><path fill="#000000" d="m883.1917 97.25804c6.98822 0 12.3255005 1.9932251 16.01184 5.979683c3.7089844 3.9864578 6.275879 10.298347 7.7006226 18.935669l-48.13739 0c0.6784668 -7.751442 3.1209717 -13.841866 7.3275146 -18.271255c4.206482 -4.4293976 9.90564 -6.6440964 17.097412 -6.6440964zm-191.83716 -65.77652l0 161.8944l32.77002 0l0 -52.156128l18.725769 -20.596687l44.77899 72.752815l41.115234 0l-63.81006 -98.00037l58.212646 -63.894028l-40.911682 0l-58.1109 67.10534l0 -67.10534zm192.85486 41.52558c-16.147583 0 -29.366394 5.942772 -39.656555 17.828316c-10.267456 11.885544 -15.401245 26.57637 -15.401245 44.07248c0 18.234344 5.020691 33.07283 15.062012 44.515427c10.041382 11.442612 23.373291 17.16391 39.99579 17.16391c12.95874 0 23.610718 -3.2605286 31.955872 -9.781586c8.345215 -6.5456696 14.519226 -16.462585 18.522217 -29.750763l-26.053223 0c-1.2212524 4.2079163 -4.1047363 7.8129425 -8.650452 10.815109c-4.5457764 2.9775238 -9.498596 4.4662933 -14.8585205 4.4662933c-8.277283 0 -14.643616 -2.4361572 -19.098877 -7.308502c-4.432678 -4.8723297 -6.852539 -12.365387 -7.2596436 -22.479172l77.75256 0l0.20355225 -5.9796906c0 -18.529633 -4.7719116 -33.749527 -14.315674 -45.659683c-9.521179 -11.934753 -22.253784 -17.902138 -38.197815 -17.902138z" fill-rule="evenodd"/><path fill="#000000" d="m941.5061 76.10768l37.96039 109.95973c0.6105957 1.624115 0.98376465 2.977539 1.1194458 4.0602875c0.13568115 1.0581207 0.20355225 2.1408691 0.20355225 3.2482147c0 4.2079315 -1.1533813 7.7145386 -3.460205 10.519821c-2.3067627 2.8052826 -5.5634155 4.2079315 -9.7699585 4.2079315c-2.1032715 0 -4.3082886 -0.07382202 -6.6150513 -0.22148132c-2.3068237 -0.14764404 -5.2581177 -0.44293213 -8.854004 -0.8858795l0 26.465637c3.1209106 0.36912537 6.151428 0.66441345 9.091431 0.8858795c2.9626465 0.22148132 6.5811768 0.33221436 10.85553 0.33221436c8.955811 0 16.249329 -2.1039581 21.880615 -6.3118896c5.6312866 -4.2079315 9.803894 -10.224518 12.517761 -18.04979l45.79669 -134.21068l-30.632874 0l-23.508972 80.28279l-0.4071045 0l-24.424866 -80.28279z" fill-rule="evenodd"/><path stroke="#ffffff" stroke-width="4.0" stroke-linejoin="round" stroke-linecap="butt" d="m883.1917 97.25804c6.98822 0 12.3255005 1.9932251 16.01184 5.979683c3.7089844 3.9864578 6.275879 10.298347 7.7006226 18.935669l-48.13739 0c0.6784668 -7.751442 3.1209717 -13.841866 7.3275146 -18.271255c4.206482 -4.4293976 9.90564 -6.6440964 17.097412 -6.6440964zm-191.83716 -65.77652l0 161.8944l32.77002 0l0 -52.156128l18.725769 -20.596687l44.77899 72.752815l41.115234 0l-63.81006 -98.00037l58.212646 -63.894028l-40.911682 0l-58.1109 67.10534l0 -67.10534zm192.85486 41.52558c-16.147583 0 -29.366394 5.942772 -39.656555 17.828316c-10.267456 11.885544 -15.401245 26.57637 -15.401245 44.07248c0 18.234344 5.020691 33.07283 15.062012 44.515427c10.041382 11.442612 23.373291 17.16391 39.99579 17.16391c12.95874 0 23.610718 -3.2605286 31.955872 -9.781586c8.345215 -6.5456696 14.519226 -16.462585 18.522217 -29.750763l-26.053223 0c-1.2212524 4.2079163 -4.1047363 7.8129425 -8.650452 10.815109c-4.5457764 2.9775238 -9.498596 4.4662933 -14.8585205 4.4662933c-8.277283 0 -14.643616 -2.4361572 -19.098877 -7.308502c-4.432678 -4.8723297 -6.852539 -12.365387 -7.2596436 -22.479172l77.75256 0l0.20355225 -5.9796906c0 -18.529633 -4.7719116 -33.749527 -14.315674 -45.659683c-9.521179 -11.934753 -22.253784 -17.902138 -38.197815 -17.902138z" fill-rule="evenodd"/><path stroke="#ffffff" stroke-width="4.0" stroke-linejoin="round" stroke-linecap="butt" d="m941.5061 76.10768l37.96039 109.95973c0.6105957 1.624115 0.98376465 2.977539 1.1194458 4.0602875c0.13568115 1.0581207 0.20355225 2.1408691 0.20355225 3.2482147c0 4.2079315 -1.1533813 7.7145386 -3.460205 10.519821c-2.3067627 2.8052826 -5.5634155 4.2079315 -9.7699585 4.2079315c-2.1032715 0 -4.3082886 -0.07382202 -6.6150513 -0.22148132c-2.3068237 -0.14764404 -5.2581177 -0.44293213 -8.854004 -0.8858795l0 26.465637c3.1209106 0.36912537 6.151428 0.66441345 9.091431 0.8858795c2.9626465 0.22148132 6.5811768 0.33221436 10.85553 0.33221436c8.955811 0 16.249329 -2.1039581 21.880615 -6.3118896c5.6312866 -4.2079315 9.803894 -10.224518 12.517761 -18.04979l45.79669 -134.21068l-30.632874 0l-23.508972 80.28279l-0.4071045 0l-24.424866 -80.28279z" fill-rule="evenodd"/><path fill="#111111" d="m1086.3859 125.83465l0 0c0 -59.39453 48.14868 -107.54331 107.54321 -107.54331l0 0c28.522339 0 55.876343 11.330423 76.04468 31.498705c20.168213 20.168285 31.498657 47.522343 31.498657 76.0446l0 0c0 59.394524 -48.148804 107.54331 -107.543335 107.54331l0 0c-59.39453 0 -107.54321 -48.14879 -107.54321 -107.54331z" fill-rule="evenodd"/><path stroke="#000000" stroke-width="1.0" stroke-linejoin="round" stroke-linecap="butt" d="m1086.3859 125.83465l0 0c0 -59.39453 48.14868 -107.54331 107.54321 -107.54331l0 0c28.522339 0 55.876343 11.330423 76.04468 31.498705c20.168213 20.168285 31.498657 47.522343 31.498657 76.0446l0 0c0 59.394524 -48.148804 107.54331 -107.543335 107.54331l0 0c-59.39453 0 -107.54321 -48.14879 -107.54321 -107.54331z" fill-rule="evenodd"/><path fill="#22c55e" d="m1158.6335 81.90547l0 0c0 -19.493412 15.802612 -35.29594 35.2959 -35.29594l0 0c9.361084 0 18.338745 3.71867 24.958008 10.33794c6.6192627 6.619274 10.338013 15.596931 10.338013 24.958l0 0c0 19.4934 -15.802612 35.29593 -35.29602 35.29593l0 0c-19.493286 0 -35.2959 -15.802528 -35.2959 -35.29593z" fill-rule="evenodd"/><path fill="#22c55e" d="m1229.2269 205.05988l-70.59485 0l14.119019 -121.749054l42.356934 0z" fill-rule="evenodd"/></g></svg>