<svg version="1.1" viewBox="0.0 0.0 1439.7716535433071 262.3044619422572" fill="none" stroke="none" stroke-linecap="square" stroke-miterlimit="10" xmlns:xlink="http://www.w3.org/1999/xlink" xmlns="http://www.w3.org/2000/svg"><clipPath id="p.0"><path d="m0 0l1439.7716 0l0 262.30447l-1439.7716 0l0 -262.30447z" clip-rule="nonzero"/></clipPath><g clip-path="url(#p.0)"><path fill="#000000" fill-opacity="0.0" d="m0 0l1439.7716 0l0 262.30447l-1439.7716 0z" fill-rule="evenodd"/><path fill="#000000" d="m84.17693 13.650774c-13.514572 0 -25.796394 2.4839554 -36.845467 7.4518642c-11.049076 4.967909 -19.450026 12.254173 -25.202848 21.858803c-5.752823 9.5715065 -8.629235 19.871635 -8.629235 30.900398c0 10.0351715 2.34375 19.109894 7.031228 27.224144c4.7179317 8.081131 11.870905 14.854042 21.458948 20.318748c7.3964844 4.2724 20.317513 8.826317 38.763073 13.661751c18.445564 4.802307 30.362122 8.346085 35.749687 10.631317c8.400955 3.477539 14.427719 7.7830505 18.080307 12.916565c3.652588 5.1003876 5.478882 11.078445 5.478882 17.934158c0 6.756363 -1.9023895 12.999359 -5.7071686 18.72902c-3.7743378 5.696533 -9.542381 10.184219 -17.30413 13.463028c-7.7617416 3.2788239 -16.710579 4.9182434 -26.846512 4.9182434c-11.41433 0 -21.687233 -2.152771 -30.818695 -6.4582825c-9.13147 -4.3386536 -15.873528 -10.002075 -20.2262 -16.99025c-4.32222 -7.021332 -7.076885 -15.996674 -8.263977 -26.926071l-25.065874 2.3845978c0.3652587 14.605652 4.0330715 27.704361 11.003416 39.296158c7.000799 11.558655 16.634495 20.21939 28.901093 25.982162c12.297047 5.7627716 27.531372 8.644165 45.702988 8.644165c14.336403 0 27.226997 -2.8482819 38.671753 -8.5448c11.47522 -5.72966 20.271866 -13.727997 26.389938 -23.99501c6.118088 -10.30014 9.177124 -21.26265 9.177124 -32.887558c0 -11.724258 -2.7850952 -22.074081 -8.355286 -31.049438c-5.5701904 -9.008469 -14.199432 -16.443771 -25.88771 -22.305908c-8.03569 -3.974327 -22.859093 -8.611038 -44.470238 -13.910141c-21.580688 -5.332222 -34.927856 -10.531975 -40.04148 -15.599236c-5.204933 -5.0672684 -7.8074036 -11.525551 -7.8074036 -19.374847c0 -9.041599 3.6678162 -16.758415 11.003418 -23.15046c7.3660583 -6.425167 19.084763 -9.637745 35.156143 -9.637745c15.432182 0 27.090027 3.527214 34.97352 10.581646c7.913948 7.054432 12.555763 17.487038 13.925484 31.297829l25.476791 -2.086525c-0.4565735 -12.8172 -3.7438965 -24.293072 -9.861984 -34.42761c-6.1180725 -10.134537 -14.869064 -17.801678 -26.25296 -23.001421c-11.353455 -5.2328663 -24.472336 -7.8492966 -39.35662 -7.8492966z" fill-rule="evenodd"/><path fill="#000000" d="m202.52074 17.376705l0 218.48865l149.84737 0l0 -25.783447l-123.274796 0l0 -74.3696l111.084274 0l0 -25.634415l-111.084274 0l0 -66.91774l118.61775 0l0 -25.783451z" fill-rule="evenodd"/><path fill="#000000" d="m389.62448 17.376705l0 218.48865l149.84738 0l0 -25.783447l-123.27481 0l0 -74.3696l111.08426 0l0 -25.634415l-111.08426 0l0 -66.91774l118.61777 0l0 -25.783451z" fill-rule="evenodd"/><path fill="#000000" d="m644.94025 43.160156c15.797485 0 27.257446 1.4903717 34.380005 4.471119c9.8619995 4.1730423 18.232483 12.403217 25.111511 24.69051c6.909485 12.254181 10.364258 29.807457 10.364258 52.659836c0 16.493462 -1.7654419 30.53608 -5.2962646 42.127876c-3.5004272 11.558655 -8.40094 20.765854 -14.70166 27.621582c-4.4744263 4.8685455 -10.485962 8.64415 -18.034668 11.326828c-7.5182495 2.682663 -17.897644 4.024002 -31.138306 4.024002l-42.872192 0l0 -166.92175zm-68.75989 -25.783451l0 218.48865l72.45813 0c12.144897 0 22.889587 -1.2419739 32.23413 -3.7259216c9.374939 -2.483963 17.36499 -6.1271057 23.970093 -10.929398c6.635498 -4.835449 12.738403 -11.442764 18.308594 -19.82196c5.5701904 -8.412338 10.135925 -19.0271 13.697205 -31.8443c3.5612183 -12.817215 5.341858 -27.522217 5.341858 -44.115044c0 -19.474205 -2.6328735 -36.779083 -7.8986816 -51.91465c-5.2353516 -15.168682 -13.149353 -27.621578 -23.741821 -37.35868c-8.127014 -7.551222 -17.94336 -12.767527 -29.448975 -15.648914c-8.218323 -2.0865211 -20.134888 -3.1297836 -35.749695 -3.1297836z" fill-rule="evenodd"/><path stroke="#ffffff" stroke-width="4.0" stroke-linejoin="round" stroke-linecap="butt" d="m84.17693 13.650774c-13.514572 0 -25.796394 2.4839554 -36.845467 7.4518642c-11.049076 4.967909 -19.450026 12.254173 -25.202848 21.858803c-5.752823 9.5715065 -8.629235 19.871635 -8.629235 30.900398c0 10.0351715 2.34375 19.109894 7.031228 27.224144c4.7179317 8.081131 11.870905 14.854042 21.458948 20.318748c7.3964844 4.2724 20.317513 8.826317 38.763073 13.661751c18.445564 4.802307 30.362122 8.346085 35.749687 10.631317c8.400955 3.477539 14.427719 7.7830505 18.080307 12.916565c3.652588 5.1003876 5.478882 11.078445 5.478882 17.934158c0 6.756363 -1.9023895 12.999359 -5.7071686 18.72902c-3.7743378 5.696533 -9.542381 10.184219 -17.30413 13.463028c-7.7617416 3.2788239 -16.710579 4.9182434 -26.846512 4.9182434c-11.41433 0 -21.687233 -2.152771 -30.818695 -6.4582825c-9.13147 -4.3386536 -15.873528 -10.002075 -20.2262 -16.99025c-4.32222 -7.021332 -7.076885 -15.996674 -8.263977 -26.926071l-25.065874 2.3845978c0.3652587 14.605652 4.0330715 27.704361 11.003416 39.296158c7.000799 11.558655 16.634495 20.21939 28.901093 25.982162c12.297047 5.7627716 27.531372 8.644165 45.702988 8.644165c14.336403 0 27.226997 -2.8482819 38.671753 -8.5448c11.47522 -5.72966 20.271866 -13.727997 26.389938 -23.99501c6.118088 -10.30014 9.177124 -21.26265 9.177124 -32.887558c0 -11.724258 -2.7850952 -22.074081 -8.355286 -31.049438c-5.5701904 -9.008469 -14.199432 -16.443771 -25.88771 -22.305908c-8.03569 -3.974327 -22.859093 -8.611038 -44.470238 -13.910141c-21.580688 -5.332222 -34.927856 -10.531975 -40.04148 -15.599236c-5.204933 -5.0672684 -7.8074036 -11.525551 -7.8074036 -19.374847c0 -9.041599 3.6678162 -16.758415 11.003418 -23.15046c7.3660583 -6.425167 19.084763 -9.637745 35.156143 -9.637745c15.432182 0 27.090027 3.527214 34.97352 10.581646c7.913948 7.054432 12.555763 17.487038 13.925484 31.297829l25.476791 -2.086525c-0.4565735 -12.8172 -3.7438965 -24.293072 -9.861984 -34.42761c-6.1180725 -10.134537 -14.869064 -17.801678 -26.25296 -23.001421c-11.353455 -5.2328663 -24.472336 -7.8492966 -39.35662 -7.8492966z" fill-rule="evenodd"/><path stroke="#ffffff" stroke-width="4.0" stroke-linejoin="round" stroke-linecap="butt" d="m202.52074 17.376705l0 218.48865l149.84737 0l0 -25.783447l-123.274796 0l0 -74.3696l111.084274 0l0 -25.634415l-111.084274 0l0 -66.91774l118.61775 0l0 -25.783451z" fill-rule="evenodd"/><path stroke="#ffffff" stroke-width="4.0" stroke-linejoin="round" stroke-linecap="butt" d="m389.62448 17.376705l0 218.48865l149.84738 0l0 -25.783447l-123.27481 0l0 -74.3696l111.08426 0l0 -25.634415l-111.08426 0l0 -66.91774l118.61777 0l0 -25.783451z" fill-rule="evenodd"/><path stroke="#ffffff" stroke-width="4.0" stroke-linejoin="round" stroke-linecap="butt" d="m644.94025 43.160156c15.797485 0 27.257446 1.4903717 34.380005 4.471119c9.8619995 4.1730423 18.232483 12.403217 25.111511 24.69051c6.909485 12.254181 10.364258 29.807457 10.364258 52.659836c0 16.493462 -1.7654419 30.53608 -5.2962646 42.127876c-3.5004272 11.558655 -8.40094 20.765854 -14.70166 27.621582c-4.4744263 4.8685455 -10.485962 8.64415 -18.034668 11.326828c-7.5182495 2.682663 -17.897644 4.024002 -31.138306 4.024002l-42.872192 0l0 -166.92175zm-68.75989 -25.783451l0 218.48865l72.45813 0c12.144897 0 22.889587 -1.2419739 32.23413 -3.7259216c9.374939 -2.483963 17.36499 -6.1271057 23.970093 -10.929398c6.635498 -4.835449 12.738403 -11.442764 18.308594 -19.82196c5.5701904 -8.412338 10.135925 -19.0271 13.697205 -31.8443c3.5612183 -12.817215 5.341858 -27.522217 5.341858 -44.115044c0 -19.474205 -2.6328735 -36.779083 -7.8986816 -51.91465c-5.2353516 -15.168682 -13.149353 -27.621578 -23.741821 -37.35868c-8.127014 -7.551222 -17.94336 -12.767527 -29.448975 -15.648914c-8.218323 -2.0865211 -20.134888 -3.1297836 -35.749695 -3.1297836z" fill-rule="evenodd"/><path fill="#00ff00" d="m777.288 13.650918c-1.1242676 4.3327227 -1.6864014 9.7158 -1.6864014 16.149235c0 6.170847 0.5621338 11.553926 1.6864014 16.149237l-16.594604 0c-1.1242676 4.288952 -1.6864014 9.672031 -1.6864014 16.149235c0 6.170845 0.5621338 11.532051 1.6864014 16.083588c-1.1242676 4.3327255 -1.6864014 9.715805 -1.6864014 16.149239c0 6.170845 0.5621338 11.553925 1.6864014 16.149239l16.594604 0c-1.1242676 4.288948 -1.6864014 9.672028 -1.6864014 16.149231c0 6.170845 0.5621338 11.532036 1.6864014 16.083595l82.83807 0c-1.0793457 4.332718 -1.6190186 9.715805 -1.6190186 16.149231c0 6.2145996 0.53967285 11.597687 1.6190186 16.149231c-1.0793457 4.288971 -1.6190186 9.672058 -1.6190186 16.149246c0 6.1708374 0.53967285 11.532028 1.6190186 16.083588l-66.31091 0c1.1242676 -4.5515594 1.6864014 -9.91275 1.6864014 -16.083588c0 -6.477188 -0.5621338 -11.860275 -1.6864014 -16.149246l-33.121765 0c-1.1242676 4.288971 -1.6864014 9.672058 -1.6864014 16.149246c0 6.1708374 0.5621338 11.532028 1.6864014 16.083588l16.594604 0c-1.1242676 4.332718 -1.6864014 9.715805 -1.6864014 16.149231c0 6.2145996 0.5621338 11.597687 1.6864014 16.149246l99.43268 0c1.1242676 -4.5515594 1.6864014 -9.934647 1.6864014 -16.149246c0 -6.433426 -0.5621338 -11.816513 -1.6864014 -16.149231l16.594604 0c1.0792847 -4.5515594 1.6189575 -9.91275 1.6189575 -16.083588c0 -6.477188 -0.53967285 -11.860275 -1.6189575 -16.149246c1.0792847 -4.551544 1.6189575 -9.934631 1.6189575 -16.149231c0 -6.433426 -0.53967285 -11.816513 -1.6189575 -16.149231l-16.594604 0c1.1242676 -4.5515594 1.6864014 -9.91275 1.6864014 -16.083595c0 -6.4772034 -0.5621338 -11.860283 -1.6864014 -16.149231l-82.90552 0c1.1242676 -4.595314 1.6864014 -9.978394 1.6864014 -16.149239c0 -6.4334335 -0.5621338 -11.816513 -1.6864014 -16.149239c1.1242676 -4.5515366 1.6864014 -9.912743 1.6864014 -16.083588c0 -6.4772034 -0.5621338 -11.860283 -1.6864014 -16.149235l66.31091 0c-1.0793457 4.288952 -1.6190186 9.672031 -1.6190186 16.149235c0 6.170845 0.53967285 11.532051 1.6190186 16.083588l33.18921 0c1.0792847 -4.5515366 1.6189575 -9.912743 1.6189575 -16.083588c0 -6.4772034 -0.53967285 -11.860283 -1.6189575 -16.149235l-16.594604 0c1.1242676 -4.59531 1.6864014 -9.97839 1.6864014 -16.149237c0 -6.4334354 -0.5621338 -11.816513 -1.6864014 -16.149235z" fill-rule="evenodd"/><path fill="#00ff00" d="m926.4774 13.650918c-1.1243286 4.3327227 -1.6864624 9.7158 -1.6864624 16.149235c0 6.170847 0.5621338 11.553926 1.6864624 16.149237c-1.1243286 4.288952 -1.6864624 9.672031 -1.6864624 16.149235c0 6.170845 0.5621338 11.532051 1.6864624 16.083588l16.594604 0c-1.1243286 4.3327255 -1.6864624 9.715805 -1.6864624 16.149239c0 6.170845 0.5621338 11.553925 1.6864624 16.149239l16.5271 0c-1.0793457 4.288948 -1.6189575 9.672028 -1.6189575 16.149231c0 6.170845 0.5396118 11.532036 1.6189575 16.083595l16.594604 0c-1.1242676 4.332718 -1.6864624 9.715805 -1.6864624 16.149231c0 6.2145996 0.5621948 11.597687 1.6864624 16.149231c-1.1242676 4.288971 -1.6864624 9.672058 -1.6864624 16.149246c0 6.1708374 0.5621948 11.532028 1.6864624 16.083588c-1.1242676 4.332718 -1.6864624 9.715805 -1.6864624 16.149231c0 6.2145996 0.5621948 11.597687 1.6864624 16.149246l33.18921 0c1.0792847 -4.5515594 1.6189575 -9.934647 1.6189575 -16.149246c0 -6.433426 -0.53967285 -11.816513 -1.6189575 -16.149231c1.0792847 -4.5515594 1.6189575 -9.91275 1.6189575 -16.083588c0 -6.477188 -0.53967285 -11.860275 -1.6189575 -16.149246c1.0792847 -4.551544 1.6189575 -9.934631 1.6189575 -16.149231c0 -6.433426 -0.53967285 -11.816513 -1.6189575 -16.149231l16.5271 0c1.1242676 -4.5515594 1.6864014 -9.91275 1.6864014 -16.083595c0 -6.4772034 -0.5621338 -11.860283 -1.6864014 -16.149231l16.594604 0c1.1242676 -4.595314 1.6864014 -9.978394 1.6864014 -16.149239c0 -6.4334335 -0.5621338 -11.816513 -1.6864014 -16.149239l16.594604 0c1.0793457 -4.5515366 1.6190186 -9.912743 1.6190186 -16.083588c0 -6.4772034 -0.53967285 -11.860283 -1.6190186 -16.149235c1.0793457 -4.59531 1.6190186 -9.97839 1.6190186 -16.149237c0 -6.4334354 -0.53967285 -11.816513 -1.6190186 -16.149235l-33.18921 0c-1.0793457 4.3327227 -1.6190186 9.7158 -1.6190186 16.149235c0 6.170847 0.53967285 11.553926 1.6190186 16.149237c-1.0793457 4.288952 -1.6190186 9.672031 -1.6190186 16.149235c0 6.170845 0.53967285 11.532051 1.6190186 16.083588l-16.5271 0c-1.1243286 4.3327255 -1.6864624 9.715805 -1.6864624 16.149239c0 6.170845 0.5621338 11.553925 1.6864624 16.149239l-33.18921 0c1.1242676 -4.595314 1.6864624 -9.978394 1.6864624 -16.149239c0 -6.4334335 -0.5621948 -11.816513 -1.6864624 -16.149239l-16.594604 0c1.1243286 -4.5515366 1.6864624 -9.912743 1.6864624 -16.083588c0 -6.4772034 -0.5621338 -11.860283 -1.6864624 -16.149235c1.1243286 -4.59531 1.6864624 -9.97839 1.6864624 -16.149237c0 -6.4334354 -0.5621338 -11.816513 -1.6864624 -16.149235z" fill-rule="evenodd"/><path fill="#00ff00" d="m1108.856 13.650918c-1.1242676 4.3327227 -1.6864014 9.7158 -1.6864014 16.149235c0 6.170847 0.5621338 11.553926 1.6864014 16.149237c-1.1242676 4.288952 -1.6864014 9.672031 -1.6864014 16.149235c0 6.170845 0.5621338 11.532051 1.6864014 16.083588c-1.1242676 4.3327255 -1.6864014 9.715805 -1.6864014 16.149239c0 6.170845 0.5621338 11.553925 1.6864014 16.149239c-1.1242676 4.288948 -1.6864014 9.672028 -1.6864014 16.149231c0 6.170845 0.5621338 11.532036 1.6864014 16.083595c-1.1242676 4.332718 -1.6864014 9.715805 -1.6864014 16.149231c0 6.2145996 0.5621338 11.597687 1.6864014 16.149231c-1.1242676 4.288971 -1.6864014 9.672058 -1.6864014 16.149246c0 6.1708374 0.5621338 11.532028 1.6864014 16.083588c-1.1242676 4.332718 -1.6864014 9.715805 -1.6864014 16.149231c0 6.2145996 0.5621338 11.597687 1.6864014 16.149246l33.121704 0c1.1242676 -4.5515594 1.6864014 -9.934647 1.6864014 -16.149246c0 -6.433426 -0.5621338 -11.816513 -1.6864014 -16.149231c1.1242676 -4.5515594 1.6864014 -9.91275 1.6864014 -16.083588c0 -6.477188 -0.5621338 -11.860275 -1.6864014 -16.149246c1.1242676 -4.551544 1.6864014 -9.934631 1.6864014 -16.149231c0 -6.433426 -0.5621338 -11.816513 -1.6864014 -16.149231l66.31091 0c1.1242676 -4.5515594 1.6865234 -9.91275 1.6865234 -16.083595c0 -6.4772034 -0.56225586 -11.860283 -1.6865234 -16.149231l-66.31091 0c1.1242676 -4.595314 1.6864014 -9.978394 1.6864014 -16.149239c0 -6.4334335 -0.5621338 -11.816513 -1.6864014 -16.149239c1.1242676 -4.5515366 1.6864014 -9.912743 1.6864014 -16.083588c0 -6.4772034 -0.5621338 -11.860283 -1.6864014 -16.149235l66.31091 0c1.1242676 -4.59531 1.6865234 -9.97839 1.6865234 -16.149237c0 -6.4334354 -0.56225586 -11.816513 -1.6865234 -16.149235z" fill-rule="evenodd"/><path fill="#00ff00" d="m1349.1807 45.94939c-1.0793457 4.288952 -1.6190186 9.672031 -1.6190186 16.149235c0 6.170845 0.53967285 11.532051 1.6190186 16.083588c-1.0793457 4.3327255 -1.6190186 9.715805 -1.6190186 16.149239c0 6.170845 0.53967285 11.553925 1.6190186 16.149239l-58.01367 0c1.1243896 -4.595314 1.6865234 -9.978394 1.6865234 -16.149239c0 -6.4334335 -0.5621338 -11.816513 -1.6865234 -16.149239c1.1243896 -4.5515366 1.6865234 -9.912743 1.6865234 -16.083588c0 -6.4772034 -0.5621338 -11.860283 -1.6865234 -16.149235zm-91.135376 -32.298473c-1.1242676 4.3327227 -1.6864014 9.7158 -1.6864014 16.149235c0 6.170847 0.5621338 11.553926 1.6864014 16.149237c-1.1242676 4.288952 -1.6864014 9.672031 -1.6864014 16.149235c0 6.170845 0.5621338 11.532051 1.6864014 16.083588c-1.1242676 4.3327255 -1.6864014 9.715805 -1.6864014 16.149239c0 6.170845 0.5621338 11.553925 1.6864014 16.149239c-1.1242676 4.288948 -1.6864014 9.672028 -1.6864014 16.149231c0 6.170845 0.5621338 11.532036 1.6864014 16.083595c-1.1242676 4.332718 -1.6864014 9.715805 -1.6864014 16.149231c0 6.2145996 0.5621338 11.597687 1.6864014 16.149231c-1.1242676 4.288971 -1.6864014 9.672058 -1.6864014 16.149246c0 6.1708374 0.5621338 11.532028 1.6864014 16.083588c-1.1242676 4.332718 -1.6864014 9.715805 -1.6864014 16.149231c0 6.2145996 0.5621338 11.597687 1.6864014 16.149246l33.121704 0c1.1243896 -4.5515594 1.6865234 -9.934647 1.6865234 -16.149246c0 -6.433426 -0.5621338 -11.816513 -1.6865234 -16.149231c1.1243896 -4.5515594 1.6865234 -9.91275 1.6865234 -16.083588c0 -6.477188 -0.5621338 -11.860275 -1.6865234 -16.149246c1.1243896 -4.551544 1.6865234 -9.934631 1.6865234 -16.149231c0 -6.433426 -0.5621338 -11.816513 -1.6865234 -16.149231l41.486572 0c-1.1243896 4.332718 -1.6865234 9.715805 -1.6865234 16.149231c0 6.2145996 0.5621338 11.597687 1.6865234 16.149231l12.412231 0c-1.1243896 4.288971 -1.6865234 9.672058 -1.6865234 16.149246c0 6.1708374 0.5621338 11.532028 1.6865234 16.083588l12.412109 0c-1.0792236 4.332718 -1.6188965 9.715805 -1.6188965 16.149231c0 6.2145996 0.53967285 11.597687 1.6188965 16.149246l33.18921 0c1.0793457 -4.5515594 1.6190186 -9.934647 1.6190186 -16.149246c0 -6.433426 -0.53967285 -11.816513 -1.6190186 -16.149231l-12.412231 0c1.0793457 -4.5515594 1.6190186 -9.91275 1.6190186 -16.083588c0 -6.477188 -0.53967285 -11.860275 -1.6190186 -16.149246l-12.479614 0c1.1242676 -4.551544 1.6864014 -9.934631 1.6864014 -16.149231c0 -6.433426 -0.5621338 -11.816513 -1.6864014 -16.149231l-8.297363 0c1.1243896 -4.5515594 1.6865234 -9.91275 1.6865234 -16.083595c0 -6.4772034 -0.5621338 -11.860283 -1.6865234 -16.149231l24.891968 0c1.1242676 -4.595314 1.6864014 -9.978394 1.6864014 -16.149239c0 -6.4334335 -0.5621338 -11.816513 -1.6864014 -16.149239l8.297241 0c1.0793457 -4.5515366 1.6190186 -9.912743 1.6190186 -16.083588c0 -6.4772034 -0.53967285 -11.860283 -1.6190186 -16.149235l-16.594604 0c1.1242676 -4.59531 1.6865234 -9.97839 1.6865234 -16.149237c0 -6.4334354 -0.56225586 -11.816513 -1.6865234 -16.149235z" fill-rule="evenodd"/><path stroke="#000000" stroke-width="2.409448818897638" stroke-linejoin="round" stroke-linecap="butt" d="m777.288 13.650918c-1.1242676 4.3327227 -1.6864014 9.7158 -1.6864014 16.149235c0 6.170847 0.5621338 11.553926 1.6864014 16.149237l-16.594604 0c-1.1242676 4.288952 -1.6864014 9.672031 -1.6864014 16.149235c0 6.170845 0.5621338 11.532051 1.6864014 16.083588c-1.1242676 4.3327255 -1.6864014 9.715805 -1.6864014 16.149239c0 6.170845 0.5621338 11.553925 1.6864014 16.149239l16.594604 0c-1.1242676 4.288948 -1.6864014 9.672028 -1.6864014 16.149231c0 6.170845 0.5621338 11.532036 1.6864014 16.083595l82.83807 0c-1.0793457 4.332718 -1.6190186 9.715805 -1.6190186 16.149231c0 6.2145996 0.53967285 11.597687 1.6190186 16.149231c-1.0793457 4.288971 -1.6190186 9.672058 -1.6190186 16.149246c0 6.1708374 0.53967285 11.532028 1.6190186 16.083588l-66.31091 0c1.1242676 -4.5515594 1.6864014 -9.91275 1.6864014 -16.083588c0 -6.477188 -0.5621338 -11.860275 -1.6864014 -16.149246l-33.121765 0c-1.1242676 4.288971 -1.6864014 9.672058 -1.6864014 16.149246c0 6.1708374 0.5621338 11.532028 1.6864014 16.083588l16.594604 0c-1.1242676 4.332718 -1.6864014 9.715805 -1.6864014 16.149231c0 6.2145996 0.5621338 11.597687 1.6864014 16.149246l99.43268 0c1.1242676 -4.5515594 1.6864014 -9.934647 1.6864014 -16.149246c0 -6.433426 -0.5621338 -11.816513 -1.6864014 -16.149231l16.594604 0c1.0792847 -4.5515594 1.6189575 -9.91275 1.6189575 -16.083588c0 -6.477188 -0.53967285 -11.860275 -1.6189575 -16.149246c1.0792847 -4.551544 1.6189575 -9.934631 1.6189575 -16.149231c0 -6.433426 -0.53967285 -11.816513 -1.6189575 -16.149231l-16.594604 0c1.1242676 -4.5515594 1.6864014 -9.91275 1.6864014 -16.083595c0 -6.4772034 -0.5621338 -11.860283 -1.6864014 -16.149231l-82.90552 0c1.1242676 -4.595314 1.6864014 -9.978394 1.6864014 -16.149239c0 -6.4334335 -0.5621338 -11.816513 -1.6864014 -16.149239c1.1242676 -4.5515366 1.6864014 -9.912743 1.6864014 -16.083588c0 -6.4772034 -0.5621338 -11.860283 -1.6864014 -16.149235l66.31091 0c-1.0793457 4.288952 -1.6190186 9.672031 -1.6190186 16.149235c0 6.170845 0.53967285 11.532051 1.6190186 16.083588l33.18921 0c1.0792847 -4.5515366 1.6189575 -9.912743 1.6189575 -16.083588c0 -6.4772034 -0.53967285 -11.860283 -1.6189575 -16.149235l-16.594604 0c1.1242676 -4.59531 1.6864014 -9.97839 1.6864014 -16.149237c0 -6.4334354 -0.5621338 -11.816513 -1.6864014 -16.149235z" fill-rule="evenodd"/><path stroke="#000000" stroke-width="2.409448818897638" stroke-linejoin="round" stroke-linecap="butt" d="m926.4774 13.650918c-1.1243286 4.3327227 -1.6864624 9.7158 -1.6864624 16.149235c0 6.170847 0.5621338 11.553926 1.6864624 16.149237c-1.1243286 4.288952 -1.6864624 9.672031 -1.6864624 16.149235c0 6.170845 0.5621338 11.532051 1.6864624 16.083588l16.594604 0c-1.1243286 4.3327255 -1.6864624 9.715805 -1.6864624 16.149239c0 6.170845 0.5621338 11.553925 1.6864624 16.149239l16.5271 0c-1.0793457 4.288948 -1.6189575 9.672028 -1.6189575 16.149231c0 6.170845 0.5396118 11.532036 1.6189575 16.083595l16.594604 0c-1.1242676 4.332718 -1.6864624 9.715805 -1.6864624 16.149231c0 6.2145996 0.5621948 11.597687 1.6864624 16.149231c-1.1242676 4.288971 -1.6864624 9.672058 -1.6864624 16.149246c0 6.1708374 0.5621948 11.532028 1.6864624 16.083588c-1.1242676 4.332718 -1.6864624 9.715805 -1.6864624 16.149231c0 6.2145996 0.5621948 11.597687 1.6864624 16.149246l33.18921 0c1.0792847 -4.5515594 1.6189575 -9.934647 1.6189575 -16.149246c0 -6.433426 -0.53967285 -11.816513 -1.6189575 -16.149231c1.0792847 -4.5515594 1.6189575 -9.91275 1.6189575 -16.083588c0 -6.477188 -0.53967285 -11.860275 -1.6189575 -16.149246c1.0792847 -4.551544 1.6189575 -9.934631 1.6189575 -16.149231c0 -6.433426 -0.53967285 -11.816513 -1.6189575 -16.149231l16.5271 0c1.1242676 -4.5515594 1.6864014 -9.91275 1.6864014 -16.083595c0 -6.4772034 -0.5621338 -11.860283 -1.6864014 -16.149231l16.594604 0c1.1242676 -4.595314 1.6864014 -9.978394 1.6864014 -16.149239c0 -6.4334335 -0.5621338 -11.816513 -1.6864014 -16.149239l16.594604 0c1.0793457 -4.5515366 1.6190186 -9.912743 1.6190186 -16.083588c0 -6.4772034 -0.53967285 -11.860283 -1.6190186 -16.149235c1.0793457 -4.59531 1.6190186 -9.97839 1.6190186 -16.149237c0 -6.4334354 -0.53967285 -11.816513 -1.6190186 -16.149235l-33.18921 0c-1.0793457 4.3327227 -1.6190186 9.7158 -1.6190186 16.149235c0 6.170847 0.53967285 11.553926 1.6190186 16.149237c-1.0793457 4.288952 -1.6190186 9.672031 -1.6190186 16.149235c0 6.170845 0.53967285 11.532051 1.6190186 16.083588l-16.5271 0c-1.1243286 4.3327255 -1.6864624 9.715805 -1.6864624 16.149239c0 6.170845 0.5621338 11.553925 1.6864624 16.149239l-33.18921 0c1.1242676 -4.595314 1.6864624 -9.978394 1.6864624 -16.149239c0 -6.4334335 -0.5621948 -11.816513 -1.6864624 -16.149239l-16.594604 0c1.1243286 -4.5515366 1.6864624 -9.912743 1.6864624 -16.083588c0 -6.4772034 -0.5621338 -11.860283 -1.6864624 -16.149235c1.1243286 -4.59531 1.6864624 -9.97839 1.6864624 -16.149237c0 -6.4334354 -0.5621338 -11.816513 -1.6864624 -16.149235z" fill-rule="evenodd"/><path stroke="#000000" stroke-width="2.409448818897638" stroke-linejoin="round" stroke-linecap="butt" d="m1108.856 13.650918c-1.1242676 4.3327227 -1.6864014 9.7158 -1.6864014 16.149235c0 6.170847 0.5621338 11.553926 1.6864014 16.149237c-1.1242676 4.288952 -1.6864014 9.672031 -1.6864014 16.149235c0 6.170845 0.5621338 11.532051 1.6864014 16.083588c-1.1242676 4.3327255 -1.6864014 9.715805 -1.6864014 16.149239c0 6.170845 0.5621338 11.553925 1.6864014 16.149239c-1.1242676 4.288948 -1.6864014 9.672028 -1.6864014 16.149231c0 6.170845 0.5621338 11.532036 1.6864014 16.083595c-1.1242676 4.332718 -1.6864014 9.715805 -1.6864014 16.149231c0 6.2145996 0.5621338 11.597687 1.6864014 16.149231c-1.1242676 4.288971 -1.6864014 9.672058 -1.6864014 16.149246c0 6.1708374 0.5621338 11.532028 1.6864014 16.083588c-1.1242676 4.332718 -1.6864014 9.715805 -1.6864014 16.149231c0 6.2145996 0.5621338 11.597687 1.6864014 16.149246l33.121704 0c1.1242676 -4.5515594 1.6864014 -9.934647 1.6864014 -16.149246c0 -6.433426 -0.5621338 -11.816513 -1.6864014 -16.149231c1.1242676 -4.5515594 1.6864014 -9.91275 1.6864014 -16.083588c0 -6.477188 -0.5621338 -11.860275 -1.6864014 -16.149246c1.1242676 -4.551544 1.6864014 -9.934631 1.6864014 -16.149231c0 -6.433426 -0.5621338 -11.816513 -1.6864014 -16.149231l66.31091 0c1.1242676 -4.5515594 1.6865234 -9.91275 1.6865234 -16.083595c0 -6.4772034 -0.56225586 -11.860283 -1.6865234 -16.149231l-66.31091 0c1.1242676 -4.595314 1.6864014 -9.978394 1.6864014 -16.149239c0 -6.4334335 -0.5621338 -11.816513 -1.6864014 -16.149239c1.1242676 -4.5515366 1.6864014 -9.912743 1.6864014 -16.083588c0 -6.4772034 -0.5621338 -11.860283 -1.6864014 -16.149235l66.31091 0c1.1242676 -4.59531 1.6865234 -9.97839 1.6865234 -16.149237c0 -6.4334354 -0.56225586 -11.816513 -1.6865234 -16.149235z" fill-rule="evenodd"/><path stroke="#000000" stroke-width="2.409448818897638" stroke-linejoin="round" stroke-linecap="butt" d="m1349.1807 45.94939c-1.0793457 4.288952 -1.6190186 9.672031 -1.6190186 16.149235c0 6.170845 0.53967285 11.532051 1.6190186 16.083588c-1.0793457 4.3327255 -1.6190186 9.715805 -1.6190186 16.149239c0 6.170845 0.53967285 11.553925 1.6190186 16.149239l-58.01367 0c1.1243896 -4.595314 1.6865234 -9.978394 1.6865234 -16.149239c0 -6.4334335 -0.5621338 -11.816513 -1.6865234 -16.149239c1.1243896 -4.5515366 1.6865234 -9.912743 1.6865234 -16.083588c0 -6.4772034 -0.5621338 -11.860283 -1.6865234 -16.149235zm-91.135376 -32.298473c-1.1242676 4.3327227 -1.6864014 9.7158 -1.6864014 16.149235c0 6.170847 0.5621338 11.553926 1.6864014 16.149237c-1.1242676 4.288952 -1.6864014 9.672031 -1.6864014 16.149235c0 6.170845 0.5621338 11.532051 1.6864014 16.083588c-1.1242676 4.3327255 -1.6864014 9.715805 -1.6864014 16.149239c0 6.170845 0.5621338 11.553925 1.6864014 16.149239c-1.1242676 4.288948 -1.6864014 9.672028 -1.6864014 16.149231c0 6.170845 0.5621338 11.532036 1.6864014 16.083595c-1.1242676 4.332718 -1.6864014 9.715805 -1.6864014 16.149231c0 6.2145996 0.5621338 11.597687 1.6864014 16.149231c-1.1242676 4.288971 -1.6864014 9.672058 -1.6864014 16.149246c0 6.1708374 0.5621338 11.532028 1.6864014 16.083588c-1.1242676 4.332718 -1.6864014 9.715805 -1.6864014 16.149231c0 6.2145996 0.5621338 11.597687 1.6864014 16.149246l33.121704 0c1.1243896 -4.5515594 1.6865234 -9.934647 1.6865234 -16.149246c0 -6.433426 -0.5621338 -11.816513 -1.6865234 -16.149231c1.1243896 -4.5515594 1.6865234 -9.91275 1.6865234 -16.083588c0 -6.477188 -0.5621338 -11.860275 -1.6865234 -16.149246c1.1243896 -4.551544 1.6865234 -9.934631 1.6865234 -16.149231c0 -6.433426 -0.5621338 -11.816513 -1.6865234 -16.149231l41.486572 0c-1.1243896 4.332718 -1.6865234 9.715805 -1.6865234 16.149231c0 6.2145996 0.5621338 11.597687 1.6865234 16.149231l12.412231 0c-1.1243896 4.288971 -1.6865234 9.672058 -1.6865234 16.149246c0 6.1708374 0.5621338 11.532028 1.6865234 16.083588l12.412109 0c-1.0792236 4.332718 -1.6188965 9.715805 -1.6188965 16.149231c0 6.2145996 0.53967285 11.597687 1.6188965 16.149246l33.18921 0c1.0793457 -4.5515594 1.6190186 -9.934647 1.6190186 -16.149246c0 -6.433426 -0.53967285 -11.816513 -1.6190186 -16.149231l-12.412231 0c1.0793457 -4.5515594 1.6190186 -9.91275 1.6190186 -16.083588c0 -6.477188 -0.53967285 -11.860275 -1.6190186 -16.149246l-12.479614 0c1.1242676 -4.551544 1.6864014 -9.934631 1.6864014 -16.149231c0 -6.433426 -0.5621338 -11.816513 -1.6864014 -16.149231l-8.297363 0c1.1243896 -4.5515594 1.6865234 -9.91275 1.6865234 -16.083595c0 -6.4772034 -0.5621338 -11.860283 -1.6865234 -16.149231l24.891968 0c1.1242676 -4.595314 1.6864014 -9.978394 1.6864014 -16.149239c0 -6.4334335 -0.5621338 -11.816513 -1.6864014 -16.149239l8.297241 0c1.0793457 -4.5515366 1.6190186 -9.912743 1.6190186 -16.083588c0 -6.4772034 -0.53967285 -11.860283 -1.6190186 -16.149235l-16.594604 0c1.1242676 -4.59531 1.6865234 -9.97839 1.6865234 -16.149237c0 -6.4334354 -0.56225586 -11.816513 -1.6865234 -16.149235z" fill-rule="evenodd"/></g></svg>
